<?xml version="1.0" encoding="utf-8"?>
<!-- Generator: Adobe Illustrator 26.0.1, SVG Export Plug-In . SVG Version: 6.00 Build 0)  -->
<svg version="1.1" xmlns="http://www.w3.org/2000/svg" xmlns:xlink="http://www.w3.org/1999/xlink" x="0px" y="0px"
	 viewBox="0 0 2560 1920" style="enable-background:new 0 0 2560 1920;" xml:space="preserve">
<style type="text/css">
	<!-- .st0{fill:#111111;} -->
	.st1{fill:#FFFFFF;}
</style>
<g id="Layer_1">
	<rect x="-30.7" y="-27" class="st0" width="2621.4" height="1974.1"/>
</g>
<g id="Layer_2">
	<path class="st1" d="M1033.6,1036.8c-0.1,0.2-0.3,0.5-0.4,0.7c-0.7,1.1-1.4,2.2-2.2,3.3c-0.2,0.2-0.3,0.4-0.5,0.7
		c-0.6,0.9-1.3,1.8-1.9,2.7c-0.2,0.3-0.4,0.5-0.5,0.8c-0.8,1.1-1.6,2.2-2.5,3.2c0,0-0.1,0.1-0.1,0.1c-0.8,1-1.7,2.1-2.5,3.1
		c-0.2,0.2-0.3,0.4-0.5,0.6c-1.8,2.1-3.7,4.2-5.6,6.2c-0.1,0.1-0.2,0.2-0.3,0.3c-0.7,0.8-1.5,1.5-2.2,2.2c-0.6,0.6-1.2,1.1-1.8,1.7
		c-0.6,0.6-1.2,1.1-1.8,1.7c-0.6,0.6-1.3,1.1-1.9,1.7c-0.6,0.5-1.2,1-1.8,1.6c-0.8,0.7-1.7,1.4-2.5,2c-0.9,0.7-1.8,1.4-2.7,2.1
		c-0.7,0.6-1.5,1.1-2.2,1.7c-0.6,0.4-1.3,0.9-1.9,1.3c-0.7,0.5-1.4,1-2.2,1.5c-0.6,0.4-1.3,0.9-1.9,1.3c-0.8,0.5-1.5,1-2.3,1.4
		c-0.6,0.4-1.2,0.8-1.9,1.2c-0.9,0.5-1.7,1-2.6,1.5c-0.5,0.3-1.1,0.6-1.6,0.9c-1.4,0.8-2.9,1.5-4.4,2.3c-3.8,1.9-7.7,3.6-11.7,5.1
		c-2,0.8-4,1.5-6.1,2.1c-2,0.7-4.1,1.3-6.2,1.8c-8,2.2-16.4,3.5-25,4.1c-2.8,0.2-5.6,0.3-8.5,0.3H808.1V838h115.4
		c2.9,0,5.7,0.1,8.5,0.3c2.2,0.1,4.3,0.3,6.4,0.6c6.3,0.7,12.5,1.9,18.6,3.5c2.1,0.6,4.2,1.2,6.2,1.8c2.1,0.7,4.1,1.4,6.1,2.1
		c4,1.5,7.9,3.2,11.7,5.1c1.5,0.7,2.9,1.5,4.4,2.3c0.5,0.3,1.1,0.6,1.6,0.9c0.9,0.5,1.8,1,2.6,1.5c0.6,0.4,1.3,0.8,1.9,1.2
		c0.8,0.5,1.5,0.9,2.3,1.4c0.6,0.4,1.3,0.8,1.9,1.3c0.7,0.5,1.4,1,2.2,1.5c0.6,0.4,1.3,0.9,1.9,1.3c0.8,0.5,1.5,1.1,2.2,1.7
		c0.9,0.7,1.8,1.4,2.7,2.1c0.8,0.7,1.7,1.3,2.5,2c0.6,0.5,1.2,1,1.8,1.6c0.6,0.5,1.3,1.1,1.9,1.7c0.6,0.5,1.2,1.1,1.8,1.7
		c0.6,0.6,1.2,1.1,1.8,1.7c0.7,0.7,1.5,1.4,2.2,2.2c0.1,0.1,0.2,0.2,0.3,0.3c1.9,2,3.8,4.1,5.6,6.2c0.2,0.2,0.3,0.4,0.5,0.6
		c0.8,1,1.7,2,2.5,3.1c0,0,0.1,0.1,0.1,0.1c0.8,1.1,1.7,2.1,2.5,3.2c0.2,0.2,0.4,0.5,0.5,0.8c0.6,0.9,1.3,1.8,1.9,2.7
		c0.2,0.2,0.3,0.5,0.5,0.7c0.7,1.1,1.5,2.2,2.2,3.3c0.1,0.2,0.3,0.5,0.4,0.7c0.3,0.4,0.6,0.9,0.8,1.4h14.2c-0.4-0.7-0.7-1.3-1.1-2
		c-0.1-0.1-0.2-0.3-0.2-0.4c-2-3.6-4.2-7-6.5-10.4c-0.1-0.1-0.2-0.2-0.2-0.3c-0.7-1-1.4-2-2.1-3c-0.1-0.1-0.2-0.2-0.2-0.3
		c-3.2-4.4-6.7-8.6-10.4-12.6c-0.1-0.1-0.1-0.2-0.2-0.2c-0.9-1-1.8-1.9-2.7-2.8l-0.1-0.1c-0.2-0.2-0.5-0.5-0.7-0.8
		c-0.3-0.3-0.7-0.6-1-1c-0.8-0.8-1.6-1.5-2.4-2.3c-0.5-0.4-1-0.9-1.4-1.3c-1.2-1.1-2.5-2.2-3.7-3.3c-0.3-0.3-0.7-0.5-1-0.8
		c-1.1-0.9-2.1-1.7-3.2-2.6c-0.4-0.3-0.8-0.6-1.2-1c-1.4-1.1-2.8-2.1-4.2-3.1c-3.7-2.7-7.6-5.1-11.6-7.5c-2-1.1-4-2.2-6-3.3
		c-2-1.1-4.1-2-6.2-3c-8-3.6-16.3-6.5-25-8.6c-4.6-1.1-9.4-2-14.2-2.7c-4.8-0.7-9.7-1.1-14.7-1.2c-1.5-0.1-3.1-0.1-4.6-0.1H795.9
		V1110h127.7c1.5,0,3.1,0,4.6-0.1c5-0.1,9.9-0.6,14.7-1.2c4.8-0.7,9.5-1.5,14.2-2.7c8.7-2.1,17-5,25-8.6c4.2-1.9,8.3-4,12.2-6.3
		c2-1.2,4-2.4,5.9-3.6c1.9-1.2,3.8-2.5,5.7-3.9c1.4-1,2.8-2.1,4.2-3.1c0.4-0.3,0.8-0.6,1.2-1c1.1-0.9,2.2-1.7,3.2-2.6
		c0.3-0.3,0.7-0.5,1-0.8c1.3-1.1,2.5-2.2,3.7-3.3c0.5-0.4,1-0.9,1.4-1.3c0.8-0.8,1.6-1.5,2.4-2.3c0.3-0.3,0.7-0.6,1-1
		c0.3-0.2,0.5-0.5,0.7-0.8l0.1-0.1c0.9-0.9,1.8-1.9,2.7-2.8c0.1-0.1,0.1-0.2,0.2-0.2c3.7-4,7.2-8.2,10.4-12.6
		c0.1-0.1,0.2-0.2,0.2-0.3c0.7-1,1.4-2,2.1-3c0.1-0.1,0.2-0.2,0.2-0.3c2.3-3.4,4.5-6.8,6.5-10.4c0.1-0.1,0.1-0.3,0.2-0.4
		c0.4-0.7,0.7-1.3,1.1-2h-14.2C1034.2,1035.9,1033.9,1036.4,1033.6,1036.8z"/>
	<path class="st1" d="M1125.9,936.4h-32.8v-74.5h32.8c13.8,0,24.4,3.2,31.8,9.5c7.4,6.3,11.1,15.6,11.1,27.7s-3.7,21.4-11.1,27.7
		C1150.3,933.3,1139.7,936.4,1125.9,936.4z M1125.9,928.1c7.2,0,13.3-1,18.3-2.9c5-1.9,8.8-5,11.4-9.3c2.6-4.2,3.9-9.8,3.9-16.8
		c0-7-1.3-12.6-3.9-16.8c-2.6-4.2-6.4-7.3-11.4-9.3c-5-1.9-11.1-2.9-18.3-2.9h-23.5v57.9H1125.9z"/>
	<path class="st1" d="M1270.2,936.4h-10.6l-8.3-16.5h-48.8l-8.3,16.5h-10.6l38.6-74.5h9.3L1270.2,936.4z M1247.2,911.6l-20.3-40.4
		l-20.3,40.4H1247.2z"/>
	<path class="st1" d="M1371.4,936.4h-9.3l-23.4-62.2l-23.4,62.2h-9.3l-28.1-74.5h9.3l23.4,62.2l23.4-62.2h9.4l23.4,62.2l23.4-62.2
		h9.3L1371.4,936.4z"/>
	<path class="st1" d="M1500.1,936.4h-9.3l-56.8-62.2v62.2h-9.3v-74.5h9.3l56.8,62.1v-62.1h9.3V936.4z"/>
	<path class="st1" d="M1585.3,936.4h-60v-74.5h57.9v8.3h-48.6V895h43.5v8.3h-43.5v24.9h50.7V936.4z"/>
	<path class="st1" d="M1681.9,936.4h-11.1l-25.8-29h-25.1v29h-9.3v-74.5h39.4c4.9,0,9.4,0.9,13.4,2.7c4,1.8,7.3,4.4,9.7,7.8
		c2.4,3.4,3.6,7.5,3.6,12.2c0,4.1-0.9,7.7-2.7,10.8c-1.8,3.1-4.2,5.6-7.3,7.5c-3.1,1.9-6.6,3.3-10.5,4L1681.9,936.4z M1650,899.2
		c3.1,0,6-0.5,8.6-1.5c2.6-1,4.8-2.6,6.3-4.8c1.6-2.1,2.4-4.9,2.4-8.2c0-3.3-0.8-6.1-2.4-8.2c-1.6-2.1-3.7-3.7-6.3-4.7
		c-2.6-1-5.5-1.5-8.6-1.5h-30.1v29H1650z"/>
	<path class="st1" d="M1136.1,1062.5c-6.9,0-13.1-1-18.4-3c-5.3-2-9.8-4.7-13.5-8.2c-3.6-3.5-6.4-7.6-8.3-12.2
		c-1.9-4.6-2.8-9.6-2.8-14.9c0-5.3,0.9-10.2,2.8-14.9c1.9-4.6,4.6-8.7,8.3-12.2c3.6-3.5,8.1-6.2,13.5-8.2c5.3-2,11.5-3,18.4-3
		c4.8,0,9.5,0.5,14.1,1.5c4.6,1,8.6,2.4,12,4.2v9.9c-2.9-2.6-6.7-4.5-11.4-5.7c-4.6-1.1-9.5-1.7-14.7-1.7c-7.2,0-13.4,1.4-18.4,4.1
		c-5,2.7-8.8,6.3-11.4,10.9c-2.6,4.5-3.9,9.6-3.9,15.1c0,5.5,1.3,10.5,3.9,15.1c2.6,4.5,6.4,8.2,11.4,10.9c5,2.7,11.1,4.1,18.4,4.1
		c5.2,0,10.1-0.6,14.7-1.7c4.6-1.1,8.4-3,11.4-5.7v9.9c-3.4,1.8-7.4,3.3-12,4.2C1145.6,1062,1140.9,1062.5,1136.1,1062.5z"/>
	<path class="st1" d="M1258.7,1061.6h-11.1l-25.8-29h-25.1v29h-9.3v-74.5h39.4c4.9,0,9.4,0.9,13.4,2.7c4,1.8,7.3,4.4,9.7,7.8
		c2.4,3.4,3.6,7.5,3.6,12.2c0,4.1-0.9,7.7-2.7,10.8c-1.8,3.1-4.2,5.6-7.3,7.5c-3.1,1.9-6.6,3.3-10.5,4L1258.7,1061.6z
		 M1226.8,1024.4c3.1,0,6-0.5,8.6-1.5c2.6-1,4.8-2.6,6.3-4.8c1.6-2.1,2.4-4.9,2.4-8.2c0-3.3-0.8-6.1-2.4-8.2
		c-1.6-2.1-3.7-3.7-6.3-4.7c-2.6-1-5.5-1.5-8.6-1.5h-30.1v29H1226.8z"/>
	<path class="st1" d="M1344,1061.6h-60v-74.5h57.9v8.3h-48.6v24.8h43.5v8.3h-43.5v24.9h50.7V1061.6z"/>
	<path class="st1" d="M1454.2,1061.6h-10.6l-8.3-16.5h-48.8l-8.3,16.5h-10.6l38.6-74.5h9.3L1454.2,1061.6z M1431.2,1036.8
		l-20.3-40.4l-20.3,40.4H1431.2z"/>
	<path class="st1" d="M1500.5,1061.6h-9.3v-66.2h-30v-8.3h69.3v8.3h-30V1061.6z"/>
	<path class="st1" d="M1565,1061.6h-9.3v-74.5h9.3V1061.6z"/>
	<path class="st1" d="M1638.2,1061.6h-9.3l-38.6-74.5h10.6l32.7,65.2l32.7-65.2h10.6L1638.2,1061.6z"/>
	<path class="st1" d="M1762.1,1061.6h-60v-74.5h57.9v8.3h-48.6v24.8h43.5v8.3h-43.5v24.9h50.7V1061.6z"/>
</g>
</svg>
