<svg xmlns="http://www.w3.org/2000/svg" xmlns:xlink="http://www.w3.org/1999/xlink" width="500" zoomAndPan="magnify" viewBox="0 0 375 374.999991" height="500" preserveAspectRatio="xMidYMid meet" version="1.0"><defs><g/><clipPath id="4d0f11ea9e"><path d="M 29.992188 167.566406 L 348.265625 167.566406 L 348.265625 204.632812 L 29.992188 204.632812 Z M 29.992188 167.566406 " clip-rule="nonzero"/></clipPath></defs><rect x="-37.5" width="450" fill="#ffffff" y="-37.499999" height="449.999989" fill-opacity="1"/><rect x="-37.5" width="450" fill="#ffffff" y="-37.499999" height="449.999989" fill-opacity="1"/><path stroke-linecap="butt" transform="matrix(0.00181951, -0.749998, 0.749998, 0.00181951, 187.662604, 293.392246)" fill="none" stroke-linejoin="miter" d="M -0.00182989 0.50195 L 298.233434 0.502386 " stroke="#000000" stroke-width="1" stroke-opacity="1" stroke-miterlimit="4"/><g fill="#000000" fill-opacity="1"><g transform="translate(52.356419, 249.38384)"><g><path d="M 4 0 L 14.660156 0 C 28.65625 0 40.117188 2.664062 51.847656 2.664062 C 92.898438 2.664062 112.359375 -30.121094 112.359375 -66.640625 C 112.359375 -103.160156 92.898438 -135.949219 51.847656 -135.949219 C 40.117188 -135.949219 28.65625 -133.285156 14.660156 -133.285156 L 4 -133.285156 L 4 -131.949219 C 15.460938 -131.949219 16.261719 -122.488281 16.261719 -96.230469 L 16.261719 -37.054688 C 16.261719 -10.796875 15.460938 -1.332031 4 -1.332031 Z M 27.589844 -130.351562 C 35.320312 -132.75 43.050781 -134.082031 51.714844 -134.082031 C 84.636719 -134.082031 100.894531 -103.027344 100.894531 -66.640625 C 100.894531 -30.253906 84.636719 0.800781 51.714844 0.800781 C 43.050781 0.800781 35.320312 -0.53125 27.589844 -2.933594 Z M 27.589844 -130.351562 "/></g></g></g><g fill="#000000" fill-opacity="1"><g transform="translate(211.751727, 249.38384)"><g><path d="M 67.308594 2.664062 C 84.367188 2.664062 96.097656 0 106.761719 -3.464844 L 106.761719 -21.324219 L 105.292969 -21.324219 C 105.292969 -21.324219 96.898438 1.066406 67.308594 1.066406 C 41.585938 1.066406 19.992188 -27.722656 19.992188 -66.640625 C 19.992188 -105.5625 39.71875 -134.351562 67.308594 -134.351562 C 89.566406 -134.351562 100.363281 -124.886719 100.363281 -109.027344 C 100.363281 -89.566406 62.910156 -81.703125 62.910156 -58.246094 C 62.910156 -52.113281 67.308594 -44.25 74.503906 -45.847656 C 71.839844 -48.117188 70.507812 -50.382812 70.507812 -54.511719 C 70.507812 -70.375 108.226562 -80.238281 108.226562 -107.960938 C 108.226562 -120.089844 97.832031 -135.949219 67.308594 -135.949219 C 34.121094 -135.949219 7.996094 -106.628906 7.996094 -66.640625 C 7.996094 -26.65625 34.121094 2.664062 67.308594 2.664062 Z M 67.308594 2.664062 "/></g></g></g><g clip-path="url(#4d0f11ea9e)"><path fill="#ffffff" d="M 29.992188 167.566406 L 348.253906 167.566406 L 348.253906 204.632812 L 29.992188 204.632812 Z M 29.992188 167.566406 " fill-opacity="1" fill-rule="nonzero"/></g><g fill="#000000" fill-opacity="1"><g transform="translate(31.340668, 192.880891)"><g><path d="M 2.390625 -14.71875 L 8.390625 -14.71875 C 9.941406 -14.71875 11.3125 -14.40625 12.5 -13.78125 C 13.695312 -13.15625 14.625 -12.285156 15.28125 -11.171875 C 15.9375 -10.054688 16.265625 -8.785156 16.265625 -7.359375 C 16.265625 -5.929688 15.9375 -4.660156 15.28125 -3.546875 C 14.625 -2.429688 13.695312 -1.5625 12.5 -0.9375 C 11.3125 -0.3125 9.941406 0 8.390625 0 L 2.390625 0 Z M 8.296875 -1.34375 C 9.585938 -1.34375 10.71875 -1.597656 11.6875 -2.109375 C 12.65625 -2.617188 13.40625 -3.328125 13.9375 -4.234375 C 14.46875 -5.140625 14.734375 -6.179688 14.734375 -7.359375 C 14.734375 -8.535156 14.46875 -9.570312 13.9375 -10.46875 C 13.40625 -11.375 12.65625 -12.082031 11.6875 -12.59375 C 10.71875 -13.101562 9.585938 -13.359375 8.296875 -13.359375 L 3.953125 -13.359375 L 3.953125 -1.34375 Z M 8.296875 -1.34375 "/></g></g></g><g fill="#000000" fill-opacity="1"><g transform="translate(55.401849, 192.880891)"><g><path d="M 11.625 -3.9375 L 3.421875 -3.9375 L 1.65625 0 L 0.046875 0 L 6.765625 -14.71875 L 8.296875 -14.71875 L 15.03125 0 L 13.390625 0 Z M 11.046875 -5.1875 L 7.53125 -13.09375 L 4 -5.1875 Z M 11.046875 -5.1875 "/></g></g></g><g fill="#000000" fill-opacity="1"><g transform="translate(77.172898, 192.880891)"><g><path d="M 22.59375 -14.71875 L 17.625 0 L 16 0 L 11.6875 -12.546875 L 7.359375 0 L 5.734375 0 L 0.78125 -14.71875 L 2.375 -14.71875 L 6.625 -2.0625 L 11.015625 -14.71875 L 12.46875 -14.71875 L 16.796875 -2 L 21.09375 -14.71875 Z M 22.59375 -14.71875 "/></g></g></g><g fill="#000000" fill-opacity="1"><g transform="translate(107.222035, 192.880891)"><g><path d="M 14.6875 -14.71875 L 14.6875 0 L 13.40625 0 L 3.953125 -11.9375 L 3.953125 0 L 2.390625 0 L 2.390625 -14.71875 L 3.671875 -14.71875 L 13.15625 -2.78125 L 13.15625 -14.71875 Z M 14.6875 -14.71875 "/></g></g></g><g fill="#000000" fill-opacity="1"><g transform="translate(131.010073, 192.880891)"><g><path d="M 12.796875 -1.34375 L 12.796875 0 L 2.390625 0 L 2.390625 -14.71875 L 12.484375 -14.71875 L 12.484375 -13.359375 L 3.953125 -13.359375 L 3.953125 -8.140625 L 11.5625 -8.140625 L 11.5625 -6.8125 L 3.953125 -6.8125 L 3.953125 -1.34375 Z M 12.796875 -1.34375 "/></g></g></g><g fill="#000000" fill-opacity="1"><g transform="translate(151.772611, 192.880891)"><g><path d="M 12.4375 0 L 9.078125 -4.734375 C 8.703125 -4.691406 8.3125 -4.671875 7.90625 -4.671875 L 3.953125 -4.671875 L 3.953125 0 L 2.390625 0 L 2.390625 -14.71875 L 7.90625 -14.71875 C 9.78125 -14.71875 11.25 -14.265625 12.3125 -13.359375 C 13.375 -12.460938 13.90625 -11.234375 13.90625 -9.671875 C 13.90625 -8.515625 13.613281 -7.539062 13.03125 -6.75 C 12.457031 -5.957031 11.628906 -5.390625 10.546875 -5.046875 L 14.140625 0 Z M 7.859375 -5.984375 C 9.316406 -5.984375 10.429688 -6.304688 11.203125 -6.953125 C 11.972656 -7.597656 12.359375 -8.503906 12.359375 -9.671875 C 12.359375 -10.859375 11.972656 -11.769531 11.203125 -12.40625 C 10.429688 -13.039062 9.316406 -13.359375 7.859375 -13.359375 L 3.953125 -13.359375 L 3.953125 -5.984375 Z M 7.859375 -5.984375 "/></g></g></g><g fill="#000000" fill-opacity="1"><g transform="translate(173.669716, 192.880891)"><g/></g></g><g fill="#000000" fill-opacity="1"><g transform="translate(185.881014, 192.880891)"><g><path d="M 8.78125 0.125 C 7.320312 0.125 6.007812 -0.195312 4.84375 -0.84375 C 3.675781 -1.488281 2.757812 -2.378906 2.09375 -3.515625 C 1.425781 -4.660156 1.09375 -5.941406 1.09375 -7.359375 C 1.09375 -8.773438 1.425781 -10.050781 2.09375 -11.1875 C 2.757812 -12.332031 3.679688 -13.226562 4.859375 -13.875 C 6.035156 -14.519531 7.351562 -14.84375 8.8125 -14.84375 C 9.894531 -14.84375 10.898438 -14.660156 11.828125 -14.296875 C 12.753906 -13.929688 13.539062 -13.394531 14.1875 -12.6875 L 13.203125 -11.703125 C 12.046875 -12.867188 10.59375 -13.453125 8.84375 -13.453125 C 7.6875 -13.453125 6.628906 -13.1875 5.671875 -12.65625 C 4.722656 -12.125 3.976562 -11.394531 3.4375 -10.46875 C 2.894531 -9.539062 2.625 -8.503906 2.625 -7.359375 C 2.625 -6.203125 2.894531 -5.160156 3.4375 -4.234375 C 3.976562 -3.316406 4.722656 -2.59375 5.671875 -2.0625 C 6.628906 -1.53125 7.6875 -1.265625 8.84375 -1.265625 C 10.613281 -1.265625 12.066406 -1.851562 13.203125 -3.03125 L 14.1875 -2.03125 C 13.539062 -1.332031 12.75 -0.796875 11.8125 -0.421875 C 10.882812 -0.0546875 9.875 0.125 8.78125 0.125 Z M 8.78125 0.125 "/></g></g></g><g fill="#000000" fill-opacity="1"><g transform="translate(207.694068, 192.880891)"><g><path d="M 12.4375 0 L 9.078125 -4.734375 C 8.703125 -4.691406 8.3125 -4.671875 7.90625 -4.671875 L 3.953125 -4.671875 L 3.953125 0 L 2.390625 0 L 2.390625 -14.71875 L 7.90625 -14.71875 C 9.78125 -14.71875 11.25 -14.265625 12.3125 -13.359375 C 13.375 -12.460938 13.90625 -11.234375 13.90625 -9.671875 C 13.90625 -8.515625 13.613281 -7.539062 13.03125 -6.75 C 12.457031 -5.957031 11.628906 -5.390625 10.546875 -5.046875 L 14.140625 0 Z M 7.859375 -5.984375 C 9.316406 -5.984375 10.429688 -6.304688 11.203125 -6.953125 C 11.972656 -7.597656 12.359375 -8.503906 12.359375 -9.671875 C 12.359375 -10.859375 11.972656 -11.769531 11.203125 -12.40625 C 10.429688 -13.039062 9.316406 -13.359375 7.859375 -13.359375 L 3.953125 -13.359375 L 3.953125 -5.984375 Z M 7.859375 -5.984375 "/></g></g></g><g fill="#000000" fill-opacity="1"><g transform="translate(229.591181, 192.880891)"><g><path d="M 12.796875 -1.34375 L 12.796875 0 L 2.390625 0 L 2.390625 -14.71875 L 12.484375 -14.71875 L 12.484375 -13.359375 L 3.953125 -13.359375 L 3.953125 -8.140625 L 11.5625 -8.140625 L 11.5625 -6.8125 L 3.953125 -6.8125 L 3.953125 -1.34375 Z M 12.796875 -1.34375 "/></g></g></g><g fill="#000000" fill-opacity="1"><g transform="translate(250.353726, 192.880891)"><g><path d="M 11.625 -3.9375 L 3.421875 -3.9375 L 1.65625 0 L 0.046875 0 L 6.765625 -14.71875 L 8.296875 -14.71875 L 15.03125 0 L 13.390625 0 Z M 11.046875 -5.1875 L 7.53125 -13.09375 L 4 -5.1875 Z M 11.046875 -5.1875 "/></g></g></g><g fill="#000000" fill-opacity="1"><g transform="translate(272.124784, 192.880891)"><g><path d="M 5.25 -13.359375 L 0.078125 -13.359375 L 0.078125 -14.71875 L 11.984375 -14.71875 L 11.984375 -13.359375 L 6.8125 -13.359375 L 6.8125 0 L 5.25 0 Z M 5.25 -13.359375 "/></g></g></g><g fill="#000000" fill-opacity="1"><g transform="translate(290.891339, 192.880891)"><g><path d="M 2.390625 -14.71875 L 3.953125 -14.71875 L 3.953125 0 L 2.390625 0 Z M 2.390625 -14.71875 "/></g></g></g><g fill="#000000" fill-opacity="1"><g transform="translate(303.943064, 192.880891)"><g><path d="M 14.625 -14.71875 L 8.109375 0 L 6.578125 0 L 0.0625 -14.71875 L 1.75 -14.71875 L 7.375 -1.9375 L 13.046875 -14.71875 Z M 14.625 -14.71875 "/></g></g></g><g fill="#000000" fill-opacity="1"><g transform="translate(325.314922, 192.880891)"><g><path d="M 12.796875 -1.34375 L 12.796875 0 L 2.390625 0 L 2.390625 -14.71875 L 12.484375 -14.71875 L 12.484375 -13.359375 L 3.953125 -13.359375 L 3.953125 -8.140625 L 11.5625 -8.140625 L 11.5625 -6.8125 L 3.953125 -6.8125 L 3.953125 -1.34375 Z M 12.796875 -1.34375 "/></g></g></g></svg>