<svg width="49" height="60" viewBox="0 0 49 60" fill="none" xmlns="http://www.w3.org/2000/svg">
<g id="655c51708a82fdc8269a7a0b_icon-28 2" clip-path="url(#clip0_54_289)">
<path id="Vector" d="M24.2658 60.0068C24.0399 60.0068 23.8233 59.9171 23.6635 59.7573C23.5038 59.5976 23.4141 59.381 23.4141 59.1551C23.4141 58.9291 23.5038 58.7125 23.6635 58.5527C23.8233 58.393 24.0399 58.3032 24.2658 58.3032C30.2515 58.3032 35.992 55.9254 40.2245 51.6929C44.457 47.4605 46.8348 41.7199 46.8348 35.7342C46.8348 29.7486 44.457 24.008 40.2245 19.7756C35.992 15.5431 30.2515 13.1653 24.2658 13.1653C24.0399 13.1653 23.8233 13.0755 23.6635 12.9158C23.5038 12.756 23.4141 12.5394 23.4141 12.3134C23.4141 12.0875 23.5038 11.8709 23.6635 11.7112C23.8233 11.5514 24.0399 11.4617 24.2658 11.4617C30.7033 11.4617 36.8771 14.0189 41.4291 18.571C45.9811 23.123 48.5384 29.2967 48.5384 35.7342C48.5384 42.1718 45.9811 48.3455 41.4291 52.8976C36.8771 57.4496 30.7033 60.0068 24.2658 60.0068Z" fill="white"/>
<path id="Vector_2" d="M27.4619 53.4376C27.2468 53.4332 27.0413 53.3475 26.8867 53.1978C26.7322 53.048 26.64 52.8454 26.6289 52.6304C26.6176 52.4155 26.6882 52.2044 26.8262 52.0394C26.9644 51.8743 27.1598 51.7677 27.3734 51.7409C31.2184 51.3378 34.7812 49.5356 37.3842 46.6769C39.9871 43.8183 41.4486 40.1027 41.4907 36.2368C41.5328 32.3708 40.1525 28.6243 37.6124 25.7097C35.0722 22.7951 31.5495 20.9158 27.714 20.4291C27.6011 20.4177 27.4915 20.3838 27.3918 20.3294C27.2922 20.2751 27.2043 20.2013 27.1335 20.1125C27.0627 20.0237 27.0105 19.9217 26.9797 19.8124C26.949 19.703 26.9404 19.5887 26.9545 19.476C26.9686 19.3634 27.005 19.2546 27.0617 19.1562C27.1184 19.0579 27.1943 18.9718 27.2847 18.9032C27.3752 18.8345 27.4784 18.7847 27.5885 18.7565C27.6985 18.7283 27.813 18.7224 27.9253 18.7392C32.1714 19.2823 36.0702 21.366 38.8812 24.5944C41.6921 27.8229 43.2195 31.9713 43.1733 36.2518C43.1271 40.5322 41.5104 44.6466 38.6303 47.8136C35.7502 50.9806 31.8074 52.9795 27.5505 53.4308L27.4619 53.4376Z" fill="white"/>
<path id="Vector_3" d="M24.2662 48.5452C17.8287 48.5452 11.6549 45.9879 7.10292 41.4358C2.55093 36.8839 -0.00634766 30.71 -0.00634766 24.2725C-0.00634766 17.8351 2.55093 11.6613 7.10292 7.10927C11.6549 2.55728 17.8287 0 24.2662 0C24.4921 0 24.7088 0.0897435 24.8684 0.249485C25.0282 0.409226 25.118 0.62588 25.118 0.85179V38.1805C25.118 38.4065 25.0282 38.6231 24.8684 38.7829C24.7088 38.9426 24.4921 39.0324 24.2662 39.0324C24.0403 39.0324 23.8236 38.9426 23.6639 38.7829C23.5041 38.6231 23.4144 38.4065 23.4144 38.1805V1.72402C17.4269 1.83698 11.7296 4.32382 7.57562 8.63745C3.42174 12.9511 1.15156 18.7382 1.26451 24.7257C1.37747 30.7132 3.86432 36.4106 8.17794 40.5645C12.4916 44.7184 18.2787 46.9886 24.2662 46.8757C24.4921 46.8757 24.7088 46.9654 24.8684 47.1251C25.0282 47.2849 25.118 47.5015 25.118 47.7275C25.118 47.9534 25.0282 48.17 24.8684 48.3298C24.7088 48.4894 24.4921 48.5792 24.2662 48.5792V48.5452Z" fill="white"/>
<path id="Vector_4" d="M24.2661 45.2128C23.8213 45.2128 23.3865 45.0809 23.0167 44.8338C22.647 44.5867 22.3587 44.2355 22.1885 43.8246C22.0183 43.4137 21.9738 42.9616 22.0605 42.5254C22.1472 42.0892 22.3614 41.6885 22.6759 41.374C22.9904 41.0595 23.3911 40.8453 23.8273 40.7585C24.2635 40.6718 24.7157 40.7163 25.1265 40.8866C25.5375 41.0567 25.8887 41.345 26.1358 41.7147C26.3829 42.0845 26.5148 42.5193 26.5148 42.9641C26.5148 43.5605 26.2779 44.1324 25.8561 44.5541C25.4344 44.9759 24.8625 45.2128 24.2661 45.2128ZM24.2661 42.4257C24.1948 42.4248 24.124 42.4381 24.0579 42.4647C23.9918 42.4914 23.9316 42.5309 23.8809 42.581C23.8302 42.6311 23.79 42.6907 23.7625 42.7565C23.735 42.8222 23.7209 42.8928 23.7209 42.9641C23.7209 43.1087 23.7783 43.2473 23.8806 43.3496C23.9828 43.4518 24.1215 43.5092 24.2661 43.5092C24.4106 43.5092 24.5493 43.4518 24.6515 43.3496C24.7537 43.2473 24.8112 43.1087 24.8112 42.9641C24.8112 42.8928 24.7971 42.8222 24.7695 42.7565C24.7421 42.6907 24.7018 42.6311 24.6511 42.581C24.6004 42.5309 24.5403 42.4914 24.4741 42.4647C24.408 42.4381 24.3373 42.4248 24.2661 42.4257Z" fill="white"/>
<path id="Vector_5" d="M24.2658 60.0068C24.0399 60.0068 23.8233 59.917 23.6635 59.7572C23.5038 59.5975 23.4141 59.3809 23.4141 59.1549V47.6933C23.4141 47.4674 23.5038 47.2508 23.6635 47.091C23.8233 46.9313 24.0399 46.8415 24.2658 46.8415C24.4917 46.8415 24.7083 46.9313 24.8681 47.091C25.0278 47.2508 25.1176 47.4674 25.1176 47.6933V59.1413C25.1194 59.2543 25.0987 59.3666 25.0567 59.4715C25.0147 59.5764 24.9522 59.6719 24.873 59.7524C24.7937 59.833 24.6992 59.897 24.5949 59.9406C24.4907 59.9843 24.3789 60.0068 24.2658 60.0068Z" fill="white"/>
</g>
<defs>
<clipPath id="clip0_54_289">
<rect width="48.75" height="60" fill="white"/>
</clipPath>
</defs>
</svg>
