<svg width="70" height="60" viewBox="0 0 70 60" fill="none" xmlns="http://www.w3.org/2000/svg">
<g id="Clip path group">
<mask id="mask0_54_276" style="mask-type:luminance" maskUnits="userSpaceOnUse" x="0" y="0" width="70" height="60">
<g id="clip0_161_705">
<path id="Vector" d="M69.3085 0H0V60H69.3085V0Z" fill="white"/>
</g>
</mask>
<g mask="url(#mask0_54_276)">
<g id="Group">
<path id="Vector_2" d="M68.3052 60H34.6501C34.4571 60.0015 34.268 59.9469 34.1055 59.843C33.9432 59.7389 33.8145 59.59 33.7352 59.4142L26.3124 42.8514C12.6706 45.0662 3.13734 52.3686 2.09414 57.9938H15.9206C16.1866 57.9938 16.4417 58.0995 16.6298 58.2876C16.818 58.4758 16.9237 58.7309 16.9237 58.9969C16.9237 59.263 16.818 59.5181 16.6298 59.7062C16.4417 59.8943 16.1866 60 15.9206 60H0.994772C0.728743 60 0.473683 59.8943 0.285569 59.7062C0.0974556 59.5181 -0.00830078 59.263 -0.00830078 58.9969C-0.00830078 51.8871 10.7527 43.5415 25.4698 40.9736L21.0323 31.0793C20.978 30.9525 20.9499 30.816 20.9499 30.6781C20.9499 30.5401 20.978 30.4036 21.0323 30.2768L34.5216 0.585794C34.6008 0.414873 34.7262 0.269464 34.8835 0.165962C35.041 0.062459 35.224 0.00497581 35.4123 -4.50169e-06C35.6008 -0.00508829 35.787 0.0435065 35.9489 0.140116C36.1109 0.236726 36.2421 0.377373 36.3271 0.545669L52.8418 32.4034C52.9024 32.5203 52.9394 32.6481 52.9506 32.7794C52.9618 32.9106 52.9471 33.0428 52.9072 33.1684C52.8673 33.2939 52.8031 33.4104 52.7182 33.5111C52.6333 33.6119 52.5295 33.695 52.4125 33.7555C52.2955 33.8161 52.1677 33.8531 52.0365 33.8643C51.9052 33.8755 51.773 33.8608 51.6474 33.8209C51.5219 33.7811 51.4054 33.7169 51.3047 33.632C51.204 33.5471 51.1209 33.4432 51.0604 33.3262L35.5167 3.33021L23.1026 30.67L27.5723 40.6606C29.9313 40.3397 32.3094 40.1788 34.6901 40.1792C53.3554 40.1792 69.3484 50.5309 69.3484 58.9969C69.3485 59.1321 69.3213 59.2659 69.2684 59.3902C69.2155 59.5147 69.138 59.6271 69.0406 59.7208C68.9431 59.8144 68.8278 59.8875 68.7014 59.9354C68.575 59.9834 68.4403 60.0054 68.3052 60ZM35.3 57.9938H67.2379C66.6201 54.8482 63.2257 51.173 57.9856 48.1637C50.874 44.1969 42.8572 42.1374 34.7142 42.1853C32.6195 42.1867 30.5268 42.3126 28.447 42.5625L35.3 57.9938Z" fill="white"/>
<path id="Vector_3" d="M55.2012 40.6849C54.6465 40.6818 54.105 40.5144 53.6453 40.2038C53.1855 39.8933 52.8281 39.4535 52.6179 38.94C52.4078 38.4266 52.3545 37.8624 52.4646 37.3186C52.5748 36.7749 52.8436 36.2759 53.237 35.8847C53.6304 35.4936 54.1308 35.2276 54.6752 35.1205C55.2196 35.0135 55.7835 35.07 56.2958 35.283C56.8081 35.4961 57.2457 35.8561 57.5537 36.3176C57.8616 36.7791 58.0259 37.3215 58.0259 37.8763C58.0248 38.2462 57.951 38.6122 57.8085 38.9535C57.666 39.2949 57.4575 39.6048 57.1953 39.8656C56.933 40.1265 56.6219 40.333 56.2797 40.4736C55.9376 40.6142 55.5711 40.686 55.2012 40.6849ZM55.2012 37.0738C55.0425 37.0738 54.8874 37.1209 54.7554 37.2091C54.6235 37.2972 54.5206 37.4226 54.4599 37.5692C54.3992 37.7159 54.3832 37.8772 54.4142 38.0328C54.4452 38.1885 54.5216 38.3315 54.6338 38.4438C54.746 38.556 54.8891 38.6324 55.0447 38.6634C55.2004 38.6943 55.3617 38.6784 55.5084 38.6177C55.655 38.5569 55.7802 38.4541 55.8684 38.3221C55.9566 38.1902 56.0037 38.035 56.0037 37.8763C56.0037 37.6635 55.9192 37.4594 55.7687 37.3089C55.6182 37.1584 55.4141 37.0738 55.2012 37.0738Z" fill="white"/>
</g>
</g>
</g>
</svg>
