<svg width="60" height="60" viewBox="0 0 60 60" fill="none" xmlns="http://www.w3.org/2000/svg">
<g id="Frame 19">
<g id="Clip path group">
<mask id="mask0_54_295" style="mask-type:luminance" maskUnits="userSpaceOnUse" x="5" y="5" width="50" height="49">
<g id="clip0_161_708">
<path id="Vector" d="M54.8167 5H5V54H54.8167V5Z" fill="white"/>
</g>
</mask>
<g mask="url(#mask0_54_295)">
<g id="Group">
<path id="Vector_2" d="M22.9435 30.388C22.8251 30.3922 22.7074 30.3656 22.5994 30.3102C22.4914 30.2548 22.3959 30.1721 22.3202 30.0683L5.18071 6.45629C5.0939 6.32437 5.04104 6.16749 5.02805 6.00326C5.01506 5.83902 5.04243 5.67392 5.10714 5.52642C5.17184 5.37893 5.27131 5.2549 5.39438 5.16821C5.51745 5.08152 5.65928 5.03558 5.80396 5.03558H54.0376C54.1822 5.03558 54.3241 5.08152 54.4471 5.16821C54.5702 5.2549 54.6697 5.37893 54.7344 5.52642C54.7991 5.67392 54.8265 5.83902 54.8135 6.00326C54.8005 6.16749 54.7476 6.32437 54.6608 6.45629L37.4777 30.0399C37.4122 30.13 37.3319 30.2044 37.2412 30.259C37.1504 30.3136 37.0511 30.3473 36.949 30.3582C36.7427 30.3802 36.5372 30.3078 36.3777 30.1571C36.2182 30.0064 36.1177 29.7896 36.0984 29.5545C36.0791 29.3194 36.1426 29.0852 36.2749 28.9034L52.3797 6.74755H7.43688L23.548 28.9034C23.6131 28.9934 23.662 29.0971 23.6919 29.2087C23.7218 29.3202 23.7321 29.4374 23.7223 29.5535C23.7124 29.6696 23.6826 29.7824 23.6346 29.8853C23.5865 29.9883 23.5211 30.0794 23.4421 30.1536C23.3065 30.2985 23.1292 30.3819 22.9435 30.388Z" fill="white"/>
<path id="Vector_3" d="M29.9116 39.9849C29.7936 39.9871 29.6765 39.9596 29.5688 39.9043C29.461 39.8491 29.3653 39.7674 29.2884 39.6653L24.0655 32.4765C23.9333 32.2947 23.8698 32.0605 23.8891 31.8253C23.9084 31.5902 24.0089 31.3734 24.1684 31.2228C24.3279 31.072 24.5334 30.9997 24.7397 31.0217C24.946 31.0437 25.1362 31.1582 25.2684 31.34L29.893 37.7331L34.3741 31.5673C34.4392 31.4773 34.5192 31.4028 34.6096 31.348C34.6999 31.2932 34.7988 31.2592 34.9007 31.248C35.0025 31.2368 35.1053 31.2485 35.2032 31.2826C35.3011 31.3167 35.3921 31.3723 35.471 31.4465C35.55 31.5207 35.6154 31.6118 35.6635 31.7148C35.7116 31.8177 35.7414 31.9305 35.7512 32.0466C35.7611 32.1627 35.7508 32.2799 35.7209 32.3914C35.691 32.5029 35.6421 32.6067 35.5771 32.6967L30.4913 39.6937C30.4175 39.7851 30.3279 39.8582 30.2282 39.9083C30.1284 39.9584 30.0207 39.9845 29.9116 39.9849Z" fill="white"/>
<path id="Vector_4" d="M54.0377 54H5.77915C5.62901 54.0056 5.48066 53.9615 5.352 53.8731C5.22334 53.7847 5.11982 53.6558 5.05395 53.5019C4.98809 53.348 4.96268 53.1757 4.98076 53.0057C4.99885 52.8357 5.05968 52.6753 5.1559 52.5438L29.307 19.3847C29.383 19.2888 29.4757 19.2121 29.5793 19.1596C29.6829 19.1072 29.795 19.08 29.9084 19.08C30.0218 19.08 30.1339 19.1072 30.2375 19.1596C30.3411 19.2121 30.4339 19.2888 30.5098 19.3847L54.636 52.5722C54.7322 52.7038 54.793 52.8642 54.8111 53.0341C54.8292 53.2041 54.8038 53.3764 54.7379 53.5303C54.6721 53.6842 54.5685 53.8131 54.4399 53.9014C54.3112 53.9899 54.1629 54.034 54.0127 54.0285L54.0377 54ZM7.43699 52.2242H52.3798L29.9427 21.3098L7.43699 52.2242Z" fill="white"/>
<path id="Vector_5" d="M29.9114 18.1345C29.7048 18.1345 29.5066 18.041 29.3605 17.8744C29.2144 17.708 29.1323 17.4821 29.1323 17.2466V14.7319C29.1323 14.4964 29.2144 14.2706 29.3605 14.1041C29.5066 13.9375 29.7048 13.844 29.9114 13.844C30.118 13.844 30.3162 13.9375 30.4623 14.1041C30.6084 14.2706 30.6905 14.4964 30.6905 14.7319V17.2537C30.6888 17.4879 30.606 17.712 30.4601 17.8769C30.3141 18.0419 30.1169 18.1345 29.9114 18.1345Z" fill="white"/>
<path id="Vector_6" d="M29.9116 46.378C29.4999 46.3653 29.1007 46.2148 28.7638 45.945C28.4269 45.6752 28.1672 45.2982 28.0173 44.8611C27.8674 44.424 27.8338 43.9463 27.9208 43.4876C28.0079 43.0289 28.2116 42.6095 28.5066 42.2821C28.8016 41.9547 29.1747 41.7337 29.5793 41.6466C29.9839 41.5596 30.4021 41.6104 30.7815 41.7928C31.1609 41.9752 31.4847 42.281 31.7124 42.672C31.9401 43.063 32.0617 43.5219 32.0618 43.9912C32.0519 44.6318 31.8205 45.242 31.4178 45.689C31.0151 46.1361 30.4737 46.3836 29.9116 46.378ZM29.9116 43.3874C29.8107 43.4063 29.7167 43.4578 29.6406 43.5356C29.5646 43.6136 29.5097 43.7146 29.4823 43.8269C29.455 43.9392 29.4564 44.058 29.4864 44.1694C29.5164 44.2808 29.5738 44.3801 29.6517 44.4556C29.7296 44.5311 29.8248 44.5795 29.9261 44.5954C30.0274 44.6112 30.1306 44.5936 30.2234 44.5448C30.3162 44.496 30.3949 44.4179 30.4501 44.3198C30.5052 44.2217 30.5346 44.1077 30.5348 43.9912C30.5294 43.9049 30.5088 43.8207 30.4743 43.7437C30.4398 43.6666 30.3921 43.5982 30.3339 43.5426C30.2758 43.4869 30.2085 43.4452 30.1359 43.4197C30.0634 43.3943 29.9871 43.3856 29.9116 43.3945V43.3874Z" fill="white"/>
</g>
</g>
</g>
</g>
</svg>
