<svg width="52" height="60" viewBox="0 0 52 60" fill="none" xmlns="http://www.w3.org/2000/svg">
<g id="Clip path group">
<mask id="mask0_8_164" style="mask-type:luminance" maskUnits="userSpaceOnUse" x="0" y="0" width="52" height="60">
<g id="clip0_161_701">
<path id="Vector" d="M51.9545 0H0V60H51.9545V0Z" fill="white"/>
</g>
</mask>
<g mask="url(#mask0_8_164)">
<g id="Group">
<path id="Vector_2" d="M26.004 60.0002C25.9064 60.0006 25.8095 59.9819 25.7191 59.9449C25.6288 59.9079 25.5466 59.8535 25.4773 59.7846L0.221308 34.5288C0.151624 34.4592 0.0963315 34.3767 0.0586088 34.2858C0.0208859 34.1949 0.00146484 34.0974 0.00146484 33.999C0.00146484 33.9006 0.0208859 33.8031 0.0586088 33.7122C0.0963315 33.6213 0.151624 33.5387 0.221308 33.4692L25.4234 8.26714C25.5667 8.13199 25.7562 8.05676 25.9531 8.05676C26.1501 8.05676 26.3396 8.13199 26.483 8.26714L41.3707 23.1549C41.5112 23.2954 41.5901 23.486 41.5901 23.6847C41.5901 23.8834 41.5112 24.074 41.3707 24.2145C41.2302 24.3549 41.0396 24.4339 40.8409 24.4339C40.6422 24.4339 40.4516 24.3549 40.3111 24.2145L25.9442 9.84754L1.79569 33.996L25.9921 58.1923L50.1525 34.0498L47.0876 30.9909C46.947 30.8504 46.8681 30.6598 46.8681 30.4611C46.8681 30.2624 46.947 30.0718 47.0876 29.9313C47.228 29.7908 47.4186 29.7119 47.6173 29.7119C47.816 29.7119 48.0066 29.7908 48.1471 29.9313L51.7388 33.523C51.8773 33.6634 51.9547 33.8527 51.9544 34.0498C51.9537 34.2486 51.8765 34.4394 51.7388 34.5826L26.5308 59.7906C26.3898 59.9274 26.2004 60.0027 26.004 60.0002Z" fill="#28282A"/>
<path id="Vector_3" d="M26.0035 51.9544C25.8064 51.9548 25.6171 51.8773 25.4767 51.739L6.88351 33.1457C6.75566 33.0035 6.68707 32.8177 6.69187 32.6267C6.69667 32.4355 6.77447 32.2534 6.9093 32.1178C7.04414 31.9822 7.22575 31.9033 7.41688 31.8975C7.60797 31.8916 7.79412 31.9591 7.93707 32.0861L26.0035 50.1526L50.152 26.0042L25.9557 1.80779L1.80716 25.9562L4.84817 28.9972C4.92386 29.0653 4.98487 29.1481 5.02746 29.2406C5.07005 29.333 5.09334 29.4332 5.09589 29.5349C5.09845 29.6366 5.08023 29.7379 5.04233 29.8323C5.00443 29.9268 4.94765 30.0125 4.87547 30.0843C4.80329 30.1561 4.71724 30.2123 4.62256 30.2498C4.52788 30.2871 4.42659 30.3047 4.32485 30.3016C4.22312 30.2985 4.12307 30.2747 4.03088 30.2315C3.93867 30.1884 3.85622 30.1269 3.7886 30.0508L0.196858 26.4591C0.127174 26.3896 0.0718812 26.307 0.0341583 26.2161C-0.00356472 26.1252 -0.0229492 26.0277 -0.0229492 25.9293C-0.0229492 25.8309 -0.00356472 25.7334 0.0341583 25.6425C0.0718812 25.5516 0.127174 25.469 0.196858 25.3995L25.3989 0.197495C25.4685 0.127811 25.551 0.072528 25.6419 0.0348051C25.7328 -0.00291779 25.8303 -0.0223389 25.9287 -0.0223389C26.0271 -0.0223389 26.1246 -0.00291779 26.2155 0.0348051C26.3064 0.072528 26.3889 0.127811 26.4585 0.197495L51.7144 25.4534C51.8519 25.5943 51.9288 25.7833 51.9288 25.9802C51.9288 26.177 51.8519 26.3661 51.7144 26.507L26.5064 51.715C26.3758 51.8566 26.1957 51.9423 26.0035 51.9544Z" fill="#28282A"/>
<path id="Vector_4" d="M25.9804 32.6968C25.5372 32.6972 25.1008 32.5882 24.7098 32.3796C24.3188 32.171 23.9853 31.8691 23.7389 31.5007C23.4925 31.1324 23.3408 30.7089 23.2972 30.2679C23.2537 29.8269 23.3196 29.3819 23.4891 28.9725C23.6587 28.563 23.9266 28.2017 24.2692 27.9206C24.6118 27.6394 25.0184 27.4472 25.4531 27.3608C25.8878 27.2745 26.3371 27.2968 26.7611 27.4255C27.1851 27.5544 27.5708 27.7858 27.8839 28.0994C28.2602 28.4761 28.5164 28.9559 28.6201 29.4781C28.7239 30.0004 28.6706 30.5416 28.4669 31.0336C28.2632 31.5255 27.9183 31.9461 27.4757 32.2421C27.0331 32.5381 26.5128 32.6964 25.9804 32.6968ZM25.9804 28.8058C25.7032 28.806 25.4347 28.9024 25.2207 29.0785C25.0066 29.2546 24.8603 29.4994 24.8067 29.7714C24.7531 30.0433 24.7954 30.3254 24.9266 30.5695C25.0577 30.8137 25.2695 31.0048 25.5259 31.1103C25.7822 31.2157 26.0671 31.2289 26.3321 31.1477C26.5971 31.0665 26.8257 30.8958 26.9789 30.6649C27.1321 30.4339 27.2005 30.157 27.1723 29.8813C27.1441 29.6056 27.0212 29.3481 26.8244 29.153C26.5999 28.9303 26.2965 28.8055 25.9804 28.8058Z" fill="#28282A"/>
</g>
</g>
</g>
</svg>
