<svg width="49" height="60" viewBox="0 0 49 60" fill="none" xmlns="http://www.w3.org/2000/svg">
<g id="655c51708a82fdc8269a7a0b_icon-28 1" clip-path="url(#clip0_8_151)">
<path id="Vector" d="M24.2658 60.0068C24.0399 60.0068 23.8233 59.9171 23.6635 59.7573C23.5038 59.5976 23.4141 59.381 23.4141 59.1551C23.4141 58.9291 23.5038 58.7125 23.6635 58.5527C23.8233 58.393 24.0399 58.3032 24.2658 58.3032C30.2515 58.3032 35.992 55.9254 40.2245 51.6929C44.457 47.4605 46.8348 41.7199 46.8348 35.7342C46.8348 29.7486 44.457 24.008 40.2245 19.7756C35.992 15.5431 30.2515 13.1653 24.2658 13.1653C24.0399 13.1653 23.8233 13.0755 23.6635 12.9158C23.5038 12.756 23.4141 12.5394 23.4141 12.3134C23.4141 12.0875 23.5038 11.8709 23.6635 11.7112C23.8233 11.5514 24.0399 11.4617 24.2658 11.4617C30.7033 11.4617 36.8771 14.0189 41.4291 18.571C45.9811 23.123 48.5384 29.2967 48.5384 35.7342C48.5384 42.1718 45.9811 48.3455 41.4291 52.8976C36.8771 57.4496 30.7033 60.0068 24.2658 60.0068Z" fill="#28282A"/>
<path id="Vector_2" d="M27.4617 53.4376C27.2465 53.4332 27.041 53.3475 26.8865 53.1978C26.732 53.048 26.6398 52.8454 26.6286 52.6304C26.6174 52.4155 26.6879 52.2044 26.826 52.0394C26.9642 51.8743 27.1596 51.7677 27.3731 51.7409C31.2182 51.3378 34.781 49.5356 37.3839 46.6769C39.9869 43.8183 41.4484 40.1027 41.4905 36.2368C41.5325 32.3708 40.1522 28.6243 37.6121 25.7097C35.072 22.7951 31.5492 20.9158 27.7138 20.4291C27.6008 20.4177 27.4913 20.3838 27.3916 20.3294C27.2919 20.2751 27.2041 20.2013 27.1333 20.1125C27.0625 20.0237 27.0102 19.9217 26.9795 19.8124C26.9487 19.703 26.9402 19.5887 26.9543 19.476C26.9684 19.3634 27.0048 19.2546 27.0615 19.1562C27.1182 19.0579 27.194 18.9718 27.2845 18.9032C27.3749 18.8345 27.4782 18.7847 27.5882 18.7565C27.6983 18.7283 27.8128 18.7224 27.9251 18.7392C32.1712 19.2823 36.0699 21.366 38.8809 24.5944C41.6918 27.8229 43.2193 31.9713 43.173 36.2518C43.1268 40.5322 41.5101 44.6466 38.63 47.8136C35.75 50.9806 31.8071 52.9795 27.5503 53.4308L27.4617 53.4376Z" fill="#28282A"/>
<path id="Vector_3" d="M24.2662 48.5452C17.8287 48.5452 11.6549 45.9879 7.10292 41.4358C2.55093 36.8839 -0.00634766 30.71 -0.00634766 24.2725C-0.00634766 17.8351 2.55093 11.6613 7.10292 7.10927C11.6549 2.55728 17.8287 0 24.2662 0C24.4921 0 24.7088 0.0897435 24.8684 0.249485C25.0282 0.409226 25.118 0.62588 25.118 0.85179V38.1805C25.118 38.4065 25.0282 38.6231 24.8684 38.7829C24.7088 38.9426 24.4921 39.0324 24.2662 39.0324C24.0403 39.0324 23.8236 38.9426 23.6639 38.7829C23.5041 38.6231 23.4144 38.4065 23.4144 38.1805V1.72402C17.4269 1.83698 11.7296 4.32382 7.57562 8.63745C3.42174 12.9511 1.15156 18.7382 1.26451 24.7257C1.37747 30.7132 3.86432 36.4106 8.17794 40.5645C12.4916 44.7184 18.2787 46.9886 24.2662 46.8757C24.4921 46.8757 24.7088 46.9654 24.8684 47.1251C25.0282 47.2849 25.118 47.5015 25.118 47.7275C25.118 47.9534 25.0282 48.17 24.8684 48.3298C24.7088 48.4894 24.4921 48.5792 24.2662 48.5792V48.5452Z" fill="#28282A"/>
<path id="Vector_4" d="M24.2663 45.2128C23.8216 45.2128 23.3868 45.0809 23.017 44.8338C22.6472 44.5867 22.3589 44.2355 22.1887 43.8246C22.0186 43.4137 21.974 42.9616 22.0608 42.5254C22.1475 42.0892 22.3617 41.6885 22.6762 41.374C22.9906 41.0595 23.3914 40.8453 23.8276 40.7585C24.2638 40.6718 24.7159 40.7163 25.1268 40.8866C25.5377 41.0567 25.8889 41.345 26.1361 41.7147C26.3831 42.0845 26.515 42.5193 26.515 42.9641C26.515 43.5605 26.2781 44.1324 25.8564 44.5541C25.4347 44.9759 24.8627 45.2128 24.2663 45.2128ZM24.2663 42.4257C24.1951 42.4248 24.1243 42.4381 24.0582 42.4647C23.992 42.4914 23.9319 42.5309 23.8812 42.581C23.8305 42.6311 23.7902 42.6907 23.7628 42.7565C23.7352 42.8222 23.7211 42.8928 23.7211 42.9641C23.7211 43.1087 23.7786 43.2473 23.8808 43.3496C23.983 43.4518 24.1217 43.5092 24.2663 43.5092C24.4108 43.5092 24.5495 43.4518 24.6517 43.3496C24.754 43.2473 24.8114 43.1087 24.8114 42.9641C24.8114 42.8928 24.7973 42.8222 24.7698 42.7565C24.7423 42.6907 24.7021 42.6311 24.6514 42.581C24.6007 42.5309 24.5405 42.4914 24.4744 42.4647C24.4083 42.4381 24.3376 42.4248 24.2663 42.4257Z" fill="#28282A"/>
<path id="Vector_5" d="M24.2658 60.0068C24.0399 60.0068 23.8233 59.917 23.6635 59.7572C23.5038 59.5975 23.4141 59.3809 23.4141 59.1549V47.6933C23.4141 47.4674 23.5038 47.2508 23.6635 47.091C23.8233 46.9313 24.0399 46.8415 24.2658 46.8415C24.4917 46.8415 24.7083 46.9313 24.8681 47.091C25.0278 47.2508 25.1176 47.4674 25.1176 47.6933V59.1413C25.1194 59.2543 25.0987 59.3666 25.0567 59.4715C25.0147 59.5764 24.9522 59.6719 24.873 59.7524C24.7937 59.833 24.6992 59.897 24.5949 59.9406C24.4907 59.9843 24.3789 60.0068 24.2658 60.0068Z" fill="#28282A"/>
</g>
<defs>
<clipPath id="clip0_8_151">
<rect width="48.75" height="60" fill="white"/>
</clipPath>
</defs>
</svg>
